<svg fill="#000000" width="45px" height="45px" viewBox="0 0 24 24" id="mouse-click" data-name="Flat Color" xmlns="http://www.w3.org/2000/svg" class="icon flat-color" stroke="#000000" transform="matrix(-1, 0, 0, 1, 0, 0)rotate(180)"><g id="SVGRepo_bgCarrier" stroke-width="0"></g><g id="SVGRepo_tracerCarrier" stroke-linecap="round" stroke-linejoin="round"></g><g id="SVGRepo_iconCarrier"><path id="primary" d="M18.18,3.86h0A10.34,10.34,0,0,0,12,2,10.34,10.34,0,0,0,5.82,3.85,2,2,0,0,0,5,5.47V15a7,7,0,0,0,14,0V5.47A2,2,0,0,0,18.18,3.86Z" style="fill: #da7dff;"></path><path id="secondary" d="M12,5a1,1,0,0,0-1,1V8a1,1,0,0,0,2,0V6A1,1,0,0,0,12,5Z" style="fill: #000;"></path></g></svg>